<svg xmlns="http://www.w3.org/2000/svg" width="1024" height="1024" viewBox="0 0 1024 1024" role="img" aria-label="MathPilot">
  <defs>
    <linearGradient id="bg" x1="0%" y1="0%" x2="100%" y2="100%">
      <stop offset="0%" stop-color="#0a4a9e"/>
      <stop offset="48%" stop-color="#0f5ec4"/>
      <stop offset="100%" stop-color="#1264d8"/>
    </linearGradient>
    <linearGradient id="mark" x1="0%" y1="100%" x2="100%" y2="0%">
      <stop offset="0%" stop-color="#e8f1ff"/>
      <stop offset="100%" stop-color="#ffffff"/>
    </linearGradient>
    <filter id="soft" x="-20%" y="-20%" width="140%" height="140%">
      <feDropShadow dx="0" dy="12" stdDeviation="18" flood-color="#042a5c" flood-opacity="0.35"/>
    </filter>
  </defs>
  <rect width="1024" height="1024" rx="228" fill="url(#bg)"/>
  <g filter="url(#soft)" transform="translate(512 512)">
    <!-- Integral with mastery arc (pilot path) -->
    <path
      fill="none"
      stroke="url(#mark)"
      stroke-width="52"
      stroke-linecap="round"
      stroke-linejoin="round"
      d="M -118 168 C -118 -92 -42 -168 42 -168 C 98 -168 138 -128 138 -72 C 138 8 78 48 -8 48"
    />
    <path
      fill="none"
      stroke="#ffffff"
      stroke-width="44"
      stroke-linecap="round"
      d="M -92 168 C -92 -72 -28 -142 48 -142 C 108 -142 148 -98 148 -48 C 148 22 88 58 8 58"
    />
    <path
      fill="none"
      stroke="#7eb8ff"
      stroke-width="28"
      stroke-linecap="round"
      opacity="0.9"
      d="M 88 -200 C 168 -248 248 -228 308 -148 C 348 -92 348 -8 288 52"
    />
    <circle cx="288" cy="52" r="22" fill="#ffffff"/>
  </g>
</svg>
