<svg xmlns="http://www.w3.org/2000/svg" viewBox="0 0 420 112" role="img" aria-labelledby="title desc">
  <title id="title">Velox</title>
  <desc id="desc">Velox wordmark with the predictive cursor mark.</desc>
  <defs>
    <linearGradient id="markGradient" x1="40" y1="20" x2="96" y2="88" gradientUnits="userSpaceOnUse">
      <stop offset="0" stop-color="#2931ff"/>
      <stop offset=".46" stop-color="#4b1dff"/>
      <stop offset="1" stop-color="#070813"/>
    </linearGradient>
    <linearGradient id="ghostGradient" x1="0" y1="26" x2="70" y2="86" gradientUnits="userSpaceOnUse">
      <stop offset="0" stop-color="#eef0ff"/>
      <stop offset="1" stop-color="#8e8cff"/>
    </linearGradient>
  </defs>
  <g transform="translate(0 11)">
    <path d="M0 27 28 45 0 63 12 45Z" fill="url(#ghostGradient)" opacity=".22"/>
    <path d="M22 18 61 45 22 72 37 45Z" fill="url(#ghostGradient)" opacity=".48"/>
    <path d="M51 12 91 45 51 78 67 45Z" fill="url(#markGradient)"/>
  </g>
  <g fill="#f8fafc">
    <path d="M132.4 82 93.2 18h19.1l22.6 39.8L157.5 18h18.7L137 82h-4.6Z"/>
    <path d="M203.1 83.5c-19.6 0-33.5-13.6-33.5-32.3 0-18.4 13.4-32.1 31.4-32.1 17.8 0 30.1 12.6 30.1 30.6 0 2.2-.2 4.5-.5 6.8h-44.2c1.8 8.3 8.3 13.4 17.3 13.4 6.5 0 11.7-2.2 15.6-6.5l9.3 10.1c-5.9 6.7-14.4 10-25.5 10Zm-16.4-38.4h28.1c-.9-7.7-6.2-12.5-13.8-12.5-7.3 0-12.7 4.8-14.3 12.5Z"/>
    <path d="M243.8 82V15.1h16.8V82h-16.8Z"/>
    <path d="M306.3 83.5c-19.2 0-33.2-13.9-33.2-32.3s14-32.1 33.2-32.1c19.3 0 33.3 13.7 33.3 32.1s-14 32.3-33.3 32.3Zm0-14.7c9.7 0 16.1-7.1 16.1-17.6 0-10.3-6.4-17.4-16.1-17.4-9.6 0-16 7.1-16 17.4 0 10.5 6.4 17.6 16 17.6Z"/>
    <path d="M346.8 82 369 50.4l-21-29.8h19.3l11.4 17.2 11.5-17.2h18.7l-21.1 29.6L410.3 82h-19.4l-12.6-18.6L365.7 82h-18.9Z"/>
  </g>
</svg>
